<?xml version="1.0" encoding="utf-8"?>
<!-- Generator: Adobe Illustrator 25.2.1, SVG Export Plug-In . SVG Version: 6.00 Build 0)  -->
<svg version="1.1" id="Capa_1" xmlns="http://www.w3.org/2000/svg" xmlns:xlink="http://www.w3.org/1999/xlink" x="0px" y="0px"
	 viewBox="0 0 466 466" style="enable-background:new 0 0 466 466;" xml:space="preserve">
<style type="text/css">
	.st0{fill:#f2bc3e;}
</style>
<g>
	<path class="st0" d="M187.5,134V8c0-4.4-3.6-8-8-8h-52c-4.4,0-8,3.6-8,8v126C92.3,147,75,174.2,75,204.7v245.1
		c0,8.9,7.2,16.1,16.1,16.1h124.7c8.9,0,16.1-7.2,16.1-16.1V204.7C232,174.2,214.7,147,187.5,134z M171.5,16v61.5h-36V16H171.5z
		 M216,449.9l-0.1,0.1H91.1c-0.1,0-0.1-0.1-0.1-0.1V204.7c0-25.8,15.5-48.6,39.4-58.1c3-1.2,5-4.2,5-7.4V93.5h36v45.7
		c0,3.3,2,6.2,5,7.4c24,9.5,39.4,32.3,39.4,58.1L216,449.9L216,449.9z"/>
	<path class="st0" d="M137.8,165.2c-16.3,6.5-26.8,22-26.8,39.5v42.4c0,4.4,3.6,8,8,8s8-3.6,8-8v-42.4c0-10.9,6.6-20.6,16.7-24.6
		c4.1-1.6,6.1-6.3,4.5-10.4C146.6,165.6,141.9,163.6,137.8,165.2z"/>
	<path class="st0" d="M119,269.1c-4.4,0-8,3.6-8,8V312c0,4.4,3.6,8,8,8s8-3.6,8-8v-34.9C127,272.7,123.4,269.1,119,269.1z"/>
	<path class="st0" d="M391,289.6v-83.5c0-4.4-3.6-8-8-8H264c-4.4,0-8,3.6-8,8v83.5c0,34.5,26,63,59.5,67V450H283c-4.4,0-8,3.6-8,8
		s3.6,8,8,8h81c4.4,0,8-3.6,8-8s-3.6-8-8-8h-32.5v-93.4C364.9,352.7,391,324.1,391,289.6z M272,289.6v-75.5h103v75.5
		c0,28.4-23.1,51.5-51.5,51.5S272,318,272,289.6z"/>
	<path class="st0" d="M365,289.6v-33.5c0-4.4-3.6-8-8-8h-67c-4.4,0-8,3.6-8,8v33.5c0,22.9,18.6,41.5,41.5,41.5S365,312.5,365,289.6z
		 M298,289.6v-25.5h51v25.5c0,14.1-11.4,25.5-25.5,25.5S298,303.7,298,289.6z"/>
</g>
</svg>
