<?xml version="1.0" encoding="utf-8"?>
<!-- Generator: Adobe Illustrator 25.2.1, SVG Export Plug-In . SVG Version: 6.00 Build 0)  -->
<svg version="1.1" id="Capa_1" xmlns="http://www.w3.org/2000/svg" xmlns:xlink="http://www.w3.org/1999/xlink" x="0px" y="0px"
	 viewBox="0 0 466 466" style="enable-background:new 0 0 466 466;" xml:space="preserve">
<style type="text/css">
	.st0{fill:#8F1A39;}
</style>
<path class="st0" d="M372.2,233l63-109.1c1.4-2.5,1.4-5.5,0-8c-1.4-2.5-4.1-4-6.9-4h-126L239.9,4c-1.4-2.5-4.1-4-6.9-4c0,0,0,0,0,0
	c-2.9,0-5.5,1.5-6.9,4l-62.4,107.9H37.8c-2.9,0-5.5,1.5-6.9,4c-1.4,2.5-1.4,5.5,0,8l63,109.1l-63,109.1c-1.4,2.5-1.4,5.5,0,8
	s4.1,4,6.9,4h126L226.1,462c1.4,2.5,4.1,4,6.9,4s5.5-1.5,6.9-4l62.3-107.9h126c2.9,0,5.5-1.5,6.9-4c1.4-2.5,1.4-5.5,0-8L372.2,233z
	 M414.4,127.9l-77.9,134.9c0,0,0,0.1-0.1,0.1l-23.8,41.2h-20.8l84.4-146.2c1.4-2.5,1.4-5.5,0-8c-1.4-2.5-4.1-4-6.9-4h-47.5l-10.4-18
	L414.4,127.9L414.4,127.9z M343.3,283l12.2,21.1h-24.3L343.3,283z M192.6,304.1l-41-71.1l41.1-71.1h80.7l41,71.1l-41,71.1H192.6z
	 M343.3,183l-12.2-21.1h24.4L343.3,183z M233,24l77,133.3c0.2,0.4,0.4,0.8,0.7,1.2L334,199l-10.4,18l-38.2-66.1
	c-0.3-0.7-0.6-1.3-1.1-1.9l-44.5-77c-1.4-2.5-4.1-4-6.9-4c0,0,0,0,0,0c-2.9,0-5.5,1.5-6.9,4L203,111.9h-20.8L233,24z M244.5,111.9
	h-23L233,92L244.5,111.9z M51.6,127.9h202.1l10.4,18H96.7c-2.9,0-5.5,1.5-6.9,4c-1.4,2.5-1.4,5.5,0,8l23.7,41.1l-10.4,18L51.6,127.9
	z M122.7,183l-12.2-21.1h24.3L122.7,183z M51.6,338.1l58.3-100.9c0,0,0-0.1,0.1-0.1l43.4-75.2h20.8l-38.6,66.9c0,0,0,0,0,0
	l-45.8,79.2c-1.4,2.5-1.4,5.5,0,8c1.4,2.5,4.1,4,6.9,4h47.4l10.4,18L51.6,338.1L51.6,338.1z M122.7,283l12.2,21.1h-24.3L122.7,283z
	 M233,442l-76.8-133c-0.2-0.6-0.6-1.1-0.9-1.6L132,267l10.4-18l38.2,66.1c0.3,0.7,0.6,1.3,1.1,1.9l18.3,31.7c0.3,1,0.9,1.9,1.5,2.6
	l24.6,42.6c1.4,2.5,4.1,4,6.9,4s5.5-1.5,6.9-4l23-39.9h20.8L233,442z M221.5,354.1h23L233,374L221.5,354.1z M212.3,338.1l-10.4-18
	h76.1c0,0,0,0,0,0s0,0,0,0h39.2c0,0,0,0,0,0s0,0,0,0h52c2.9,0,5.5-1.5,6.9-4c1.4-2.5,1.4-5.5,0-8L352.5,267l10.4-18l51.5,89.1H212.3
	z"/>
</svg>
