<?xml version="1.0" encoding="utf-8"?>
<!-- Generator: Adobe Illustrator 25.2.1, SVG Export Plug-In . SVG Version: 6.00 Build 0)  -->
<svg version="1.1" id="Capa_1" xmlns="http://www.w3.org/2000/svg" xmlns:xlink="http://www.w3.org/1999/xlink" x="0px" y="0px"
	 viewBox="0 0 466 466" style="enable-background:new 0 0 466 466;" xml:space="preserve">
<style type="text/css">
	.st0{fill:#8F1A39;}
</style>
<g>
	<path class="st0" d="M397.3,392.7c10.3,0,18.7-8.4,18.7-18.7V18.7C416,8.4,407.6,0,397.3,0H79.4C63.2,0,50,13.2,50,29.3v407.3
		c0,16.2,13.2,29.3,29.3,29.3H408c4.4,0,8-3.6,8-8s-3.6-8-8-8h-13.3v-57.3L397.3,392.7L397.3,392.7z M66,29.3C66,22,72,16,79.4,16h7
		v77c0,4.4,3.6,8,8,8s8-3.6,8-8V16h294.9c1.4,0,2.7,1.2,2.7,2.7V374c0,1.4-1.2,2.7-2.7,2.7H102.4V123c0-4.4-3.6-8-8-8s-8,3.6-8,8
		v253.7h-7c-4.8,0-9.3,1.2-13.3,3.2L66,29.3L66,29.3z M378.6,450H79.4C72,450,66,444,66,436.7V406c0-7.3,6-13.3,13.3-13.3h299.3
		L378.6,450L378.6,450z"/>
	<path class="st0" d="M148.2,256c1.4,2.5,4.1,4,6.9,4h59.5l31.1,53.9c1.4,2.5,4.1,4,6.9,4s5.5-1.5,6.9-4l31.1-53.9h59.5
		c2.9,0,5.5-1.5,6.9-4c1.4-2.5,1.4-5.5,0-8l-29.7-51.5l29.7-51.5c1.4-2.5,1.4-5.5,0-8c-1.4-2.5-4.1-4-6.9-4h-59.5l-31.1-53.9
		c-1.4-2.5-4.1-4-6.9-4s-5.5,1.5-6.9,4L214.6,133h-59.5c-2.9,0-5.5,1.5-6.9,4c-1.4,2.5-1.4,5.5,0,8l29.7,51.5L148.2,248
		C146.8,250.5,146.8,253.5,148.2,256z M252.7,293.9L233.1,260h39.2L252.7,293.9z M223.8,244l-27.4-47.5l27.4-47.5h57.7l27.4,47.5
		L281.5,244H223.8z M336.4,244H300l18.2-31.5L336.4,244z M336.4,149l-18.2,31.5L300,149H336.4z M252.7,99.1l19.6,33.9h-39.2
		L252.7,99.1z M169,149h36.4l-18.2,31.5L169,149z M187.2,212.5l18.2,31.5H169L187.2,212.5z"/>
</g>
</svg>
